#tb 0: 52/525
#media_type 0: video
#codec_id 0: rawvideo
#dimensions 0: 160x120
#sar 0: 0/1
0,          0,          0,        1,    57600, 0x87887a7b
0,          1,          1,        1,    57600, 0x10c301d2
0,          2,          2,        1,    57600, 0xd1a6f910
0,          3,          3,        1,    57600, 0x20242bb9
0,          4,          4,        1,    57600, 0xae33cb7f
0,          5,          5,        1,    57600, 0x501b82c8
0,          6,          6,        1,    57600, 0x84199043
0,          7,          7,        1,    57600, 0x946a6dbb
0,          8,          8,        1,    57600, 0xeacea671
0,          9,          9,        1,    57600, 0x77b8723f
0,         10,         10,        1,    57600, 0x371cdb09
0,         11,         11,        1,    57600, 0xa16ef5ee
0,         12,         12,        1,    57600, 0xcb6abd9e
0,         13,         13,        1,    57600, 0xb73e800f
0,         14,         14,        1,    57600, 0x368bd93e
0,         15,         15,        1,    57600, 0xcde72dc5
